<?xml version="1.0" encoding="UTF-8" standalone="no"?>
<!DOCTYPE svg PUBLIC "-//W3C//DTD SVG 1.1//EN" "http://www.w3.org/Graphics/SVG/1.1/DTD/svg11.dtd">
<svg version="1.1" xmlns="http://www.w3.org/2000/svg" xmlns:xlink="http://www.w3.org/1999/xlink" preserveAspectRatio="xMidYMid meet" viewBox="0 0 44 44" width="44" height="44"><defs><path d="M2 17.28L22 2L42 17.28L34.36 42L9.64 42L2 17.28Z" id="a1Ge3M9XHI"></path><path d="M77.05 22L87.05 42L67.05 42L47.05 42L57.05 22L67.05 2L77.05 22Z" id="a71rjlmWU"></path><path d="M135.29 22C135.29 33.04 126.32 42 115.29 42C104.25 42 95.29 33.04 95.29 22C95.29 10.96 104.25 2 115.29 2C126.32 2 135.29 10.96 135.29 22Z" id="j29mZmzRKj"></path><path d="M146.38 1L186.38 1L186.38 41L146.38 41L146.38 1Z" id="a5rTwlERD"></path></defs><g><g><g><g><use xlink:href="#a1Ge3M9XHI" opacity="1" fill-opacity="0" stroke="#e8e9ea" stroke-width="3" stroke-opacity="1"></use></g></g><g><g><use xlink:href="#a71rjlmWU" opacity="1" fill-opacity="0" stroke="#e8e9ea" stroke-width="3" stroke-opacity="1"></use></g></g><g><g><use xlink:href="#j29mZmzRKj" opacity="1" fill-opacity="0" stroke="#e8e9ea" stroke-width="3" stroke-opacity="1"></use></g></g><g><g><use xlink:href="#a5rTwlERD" opacity="1" fill-opacity="0" stroke="#e8e9ea" stroke-width="3" stroke-opacity="1"></use></g></g></g></g></svg>