<svg xmlns="http://www.w3.org/2000/svg" xmlns:xlink="http://www.w3.org/1999/xlink" width="401.04" height="72.00000000000001"><path fill="#666" d="M21.53-1.80C14.98-1.80 9.65-0.86 6.05-0.50L6.05 54.00L12.38 54.00C17.93 54.00 19.51 54.00 22.46 54.00C41.47 54.22 41.47 41.98 41.47 37.66C41.47 34.34 40.18 28.15 33.41 25.20C36.65 23.11 38.95 19.66 39.02 13.82C38.45 1.73 31.68-1.80 21.53-1.80ZM12.38 28.73C15.70 28.73 18.07 28.73 23.40 28.73C33.98 28.73 35.28 35.28 35.28 37.66C35.28 41.54 35.06 48.53 22.46 48.53C17.93 48.53 16.92 48.53 12.38 48.53ZM32.90 13.68C32.33 24.34 23.47 23.26 12.38 23.26L12.38 4.32C15.84 3.89 20.16 3.38 24.41 3.74C29.09 4.18 32.83 6.34 32.90 13.68ZM49.61 34.63C49.61 45.50 55.37 54.86 66.89 54.86C69.84 54.86 75.60 55.15 82.80 46.22L79.13 42.70C73.66 49.90 68.98 49.68 66.89 49.68C59.26 49.68 55.22 43.27 55.58 33.91L82.58 33.91L82.58 31.10C82.58 28.30 81.36 13.54 66.60 13.54C56.23 13.54 49.61 23.11 49.61 34.63ZM66.60 18.72C73.37 18.72 75.82 24.55 76.46 28.58L56.38 28.58C57.96 23.04 61.27 18.72 66.60 18.72ZM99.65 54.00L99.65 15.12L99.58 13.97L99.86 15.12L114.77 54.00L120.89 54.00L135.79 15.12L136.08 13.90L136.01 15.12L136.01 54.00L142.34 54.00L142.34-1.44L136.01-1.44L117.86 46.08L117.79 46.58L117.72 46.08L99.65-1.44L93.31-1.44L93.31 54.00ZM152.28 34.20C152.28 49.82 160.85 54.86 169.49 54.86C178.13 54.86 186.70 49.46 186.70 34.20C186.70 19.15 178.13 13.54 169.49 13.54C160.85 13.54 152.28 19.08 152.28 34.20ZM180.65 34.20C180.65 45.79 174.96 49.97 169.49 49.97C164.02 49.97 158.33 45.58 158.33 34.20C158.33 22.68 164.02 18.50 169.49 18.50C174.96 18.50 180.65 23.04 180.65 34.20ZM216.00 13.54C209.52 13.54 205.78 16.06 202.61 19.51L202.61-5.04L196.63-5.04L196.63 54.00L202.61 54.00L202.61 50.11C206.64 53.35 211.39 54.86 214.99 54.86C225.29 54.86 231.62 47.02 231.62 33.55C231.62 23.11 226.73 13.54 216.00 13.54ZM216.00 19.44C222.34 19.51 225.58 26.28 225.58 33.55C225.58 43.27 221.40 49.18 214.99 49.18C211.25 49.18 206.14 47.02 202.61 43.49L202.61 26.93C204.91 23.33 209.02 19.37 216.00 19.44ZM242.28 14.40L242.28 54.00L248.26 54.00L248.26 14.40ZM241.56 2.23C241.56 4.39 243.14 5.98 245.30 5.98C247.39 5.98 248.98 4.39 248.98 2.23C248.98 0.14 247.39-1.44 245.30-1.44C243.14-1.44 241.56 0.14 241.56 2.23ZM261.07-5.04L261.07 43.49C261.07 46.15 261.07 49.90 263.59 52.42C265.82 54.65 270.14 54.86 272.38 54.86L272.59 49.75C270.58 49.75 269.06 49.32 267.98 48.24C267.05 47.30 267.05 45.14 267.05 43.49L267.05-5.04ZM278.93 34.63C278.93 45.50 284.69 54.86 296.21 54.86C299.16 54.86 304.92 55.15 312.12 46.22L308.45 42.70C302.98 49.90 298.30 49.68 296.21 49.68C288.58 49.68 284.54 43.27 284.90 33.91L311.90 33.91L311.90 31.10C311.90 28.30 310.68 13.54 295.92 13.54C285.55 13.54 278.93 23.11 278.93 34.63ZM295.92 18.72C302.69 18.72 305.14 24.55 305.78 28.58L285.70 28.58C287.28 23.04 290.59 18.72 295.92 18.72ZM328.97 54.00L328.97 32.98C331.92 34.99 335.38 36.72 340.27 36.72C351.07 36.72 357.48 29.52 357.48 15.70C357.48 4.97 350.64-2.52 340.78-2.52C336.53-2.52 332.28-1.22 328.97 0.72L328.97-1.44L322.63-1.44L322.63 54.00ZM351.36 15.70C351.36 25.99 346.97 30.96 340.56 30.96C336.24 30.96 332.28 29.23 328.97 26.28L328.97 6.70C332.06 4.39 335.30 3.02 338.69 3.02C346.61 3.02 351.36 8.28 351.36 15.70ZM361.51 4.03L377.71 4.03L377.71 54.00L384.05 54.00L384.05 4.03L400.54 4.03L400.54-1.44L361.51-1.44Z"/></svg>
