<svg xmlns="http://www.w3.org/2000/svg" xmlns:xlink="http://www.w3.org/1999/xlink" width="438.9840000000001" height="86.4"><path fill="red" stroke="black" d="M17.24 61.88L25.81 61.88L25.81 61.88Q28.22 61.88 29.75 61.27L29.75 61.27L29.75 61.27Q31.28 60.66 32.15 59.69L32.15 59.69L32.15 59.69Q33.01 58.72 33.34 57.49L33.34 57.49L33.34 57.49Q33.66 56.27 33.66 55.01L33.66 55.01L33.66 55.01Q33.66 53.57 33.28 52.42L33.28 52.42L33.28 52.42Q32.90 51.26 31.99 50.47L31.99 50.47L31.99 50.47Q31.07 49.68 29.56 49.25L29.56 49.25L29.56 49.25Q28.04 48.82 25.74 48.82L25.74 48.82L17.24 48.82L17.24 61.88ZM24.37 27.72L17.24 27.72L17.24 40.68L23.58 40.68L23.58 40.68Q25.60 40.68 27.22 40.39L27.22 40.39L27.22 40.39Q28.84 40.10 29.97 39.38L29.97 39.38L29.97 39.38Q31.10 38.66 31.70 37.40L31.70 37.40L31.70 37.40Q32.29 36.14 32.29 34.24L32.29 34.24L32.29 34.24Q32.29 32.36 31.82 31.12L31.82 31.12L31.82 31.12Q31.36 29.88 30.38 29.12L30.38 29.12L30.38 29.12Q29.41 28.37 27.92 28.04L27.92 28.04L27.92 28.04Q26.42 27.72 24.37 27.72L24.37 27.72ZM5.08 18.61L24.37 18.61L24.37 18.61Q29.81 18.61 33.62 19.62L33.62 19.62L33.62 19.62Q37.44 20.63 39.85 22.46L39.85 22.46L39.85 22.46Q42.26 24.30 43.36 26.93L43.36 26.93L43.36 26.93Q44.46 29.56 44.46 32.80L44.46 32.80L44.46 32.80Q44.46 34.56 43.96 36.20L43.96 36.20L43.96 36.20Q43.45 37.84 42.37 39.26L42.37 39.26L42.37 39.26Q41.29 40.68 39.60 41.87L39.60 41.87L39.60 41.87Q37.91 43.06 35.53 43.92L35.53 43.92L35.53 43.92Q40.72 45.18 43.20 47.99L43.20 47.99L43.20 47.99Q45.68 50.80 45.68 55.26L45.68 55.26L45.68 55.26Q45.68 58.61 44.39 61.49L44.39 61.49L44.39 61.49Q43.09 64.37 40.59 66.51L40.59 66.51L40.59 66.51Q38.09 68.65 34.42 69.86L34.42 69.86L34.42 69.86Q30.74 71.06 26.03 71.06L26.03 71.06L5.08 71.06L5.08 18.61ZM61.31 47.92L75.20 47.92L75.20 47.92Q75.20 46.58 74.86 45.32L74.86 45.32L74.86 45.32Q74.52 44.06 73.75 43.07L73.75 43.07L73.75 43.07Q72.97 42.08 71.71 41.47L71.71 41.47L71.71 41.47Q70.45 40.86 68.65 40.86L68.65 40.86L68.65 40.86Q65.48 40.86 63.68 42.68L63.68 42.68L63.68 42.68Q61.88 44.50 61.31 47.92L61.31 47.92ZM82.69 54.40L61.16 54.40L61.16 54.40Q61.70 59.08 64.01 61.18L64.01 61.18L64.01 61.18Q66.31 63.29 69.95 63.29L69.95 63.29L69.95 63.29Q71.89 63.29 73.30 62.82L73.30 62.82L73.30 62.82Q74.70 62.35 75.80 61.78L75.80 61.78L75.80 61.78Q76.90 61.20 77.81 60.73L77.81 60.73L77.81 60.73Q78.73 60.26 79.74 60.26L79.74 60.26L79.74 60.26Q81.07 60.26 81.76 61.24L81.76 61.24L85.00 65.23L85.00 65.23Q83.27 67.21 81.27 68.45L81.27 68.45L81.27 68.45Q79.27 69.70 77.17 70.40L77.17 70.40L77.17 70.40Q75.06 71.10 72.95 71.37L72.95 71.37L72.95 71.37Q70.85 71.64 68.94 71.64L68.94 71.64L68.94 71.64Q65.02 71.64 61.58 70.36L61.58 70.36L61.58 70.36Q58.14 69.08 55.57 66.56L55.57 66.56L55.57 66.56Q52.99 64.04 51.50 60.30L51.50 60.30L51.50 60.30Q50.00 56.56 50.00 51.59L50.00 51.59L50.00 51.59Q50.00 47.84 51.28 44.50L51.28 44.50L51.28 44.50Q52.56 41.15 54.95 38.63L54.95 38.63L54.95 38.63Q57.35 36.11 60.75 34.63L60.75 34.63L60.75 34.63Q64.15 33.16 68.44 33.16L68.44 33.16L68.44 33.16Q72.14 33.16 75.22 34.31L75.22 34.31L75.22 34.31Q78.30 35.46 80.51 37.66L80.51 37.66L80.51 37.66Q82.73 39.85 83.97 43.04L83.97 43.04L83.97 43.04Q85.21 46.22 85.21 50.26L85.21 50.26L85.21 50.26Q85.21 51.52 85.10 52.31L85.10 52.31L85.10 52.31Q85.00 53.10 84.71 53.57L84.71 53.57L84.71 53.57Q84.42 54.04 83.93 54.22L83.93 54.22L83.93 54.22Q83.45 54.40 82.69 54.40L82.69 54.40ZM158.40 18.61L167.69 18.61L167.69 71.06L156.96 71.06L156.96 40.90L156.96 40.90Q156.96 39.85 157.01 38.63L157.01 38.63L157.01 38.63Q157.07 37.40 157.21 36.14L157.21 36.14L143.28 63.11L143.28 63.11Q142.63 64.37 141.53 65.02L141.53 65.02L141.53 65.02Q140.44 65.66 139.03 65.66L139.03 65.66L137.38 65.66L137.38 65.66Q135.97 65.66 134.87 65.02L134.87 65.02L134.87 65.02Q133.78 64.37 133.13 63.11L133.13 63.11L119.20 36.07L119.20 36.07Q119.30 37.37 119.38 38.61L119.38 38.61L119.38 38.61Q119.45 39.85 119.45 40.90L119.45 40.90L119.45 71.06L108.72 71.06L108.72 18.61L118.01 18.61L118.01 18.61Q118.80 18.61 119.39 18.65L119.39 18.65L119.39 18.65Q119.99 18.68 120.46 18.86L120.46 18.86L120.46 18.86Q120.92 19.04 121.30 19.42L121.30 19.42L121.30 19.42Q121.68 19.80 122.04 20.48L122.04 20.48L135.54 47.09L135.54 47.09Q136.26 48.46 136.93 49.93L136.93 49.93L136.93 49.93Q137.59 51.41 138.20 52.96L138.20 52.96L138.20 52.96Q138.82 51.37 139.48 49.86L139.48 49.86L139.48 49.86Q140.15 48.35 140.90 46.98L140.90 46.98L154.37 20.48L154.37 20.48Q154.73 19.80 155.11 19.42L155.11 19.42L155.11 19.42Q155.48 19.04 155.95 18.86L155.95 18.86L155.95 18.86Q156.42 18.68 157.01 18.65L157.01 18.65L157.01 18.65Q157.61 18.61 158.40 18.61L158.40 18.61ZM193.75 33.16L193.75 33.16L193.75 33.16Q198 33.16 201.49 34.49L201.49 34.49L201.49 34.49Q204.98 35.82 207.49 38.30L207.49 38.30L207.49 38.30Q209.99 40.79 211.37 44.33L211.37 44.33L211.37 44.33Q212.76 47.88 212.76 52.31L212.76 52.31L212.76 52.31Q212.76 56.77 211.37 60.35L211.37 60.35L211.37 60.35Q209.99 63.94 207.49 66.44L207.49 66.44L207.49 66.44Q204.98 68.94 201.49 70.29L201.49 70.29L201.49 70.29Q198 71.64 193.75 71.64L193.75 71.64L193.75 71.64Q189.47 71.64 185.96 70.29L185.96 70.29L185.96 70.29Q182.45 68.94 179.91 66.44L179.91 66.44L179.91 66.44Q177.37 63.94 175.99 60.35L175.99 60.35L175.99 60.35Q174.60 56.77 174.60 52.31L174.60 52.31L174.60 52.31Q174.60 47.88 175.99 44.33L175.99 44.33L175.99 44.33Q177.37 40.79 179.91 38.30L179.91 38.30L179.91 38.30Q182.45 35.82 185.96 34.49L185.96 34.49L185.96 34.49Q189.47 33.16 193.75 33.16ZM193.75 63.36L193.75 63.36L193.75 63.36Q197.60 63.36 199.42 60.64L199.42 60.64L199.42 60.64Q201.24 57.92 201.24 52.38L201.24 52.38L201.24 52.38Q201.24 46.84 199.42 44.14L199.42 44.14L199.42 44.14Q197.60 41.44 193.75 41.44L193.75 41.44L193.75 41.44Q189.79 41.44 187.96 44.14L187.96 44.14L187.96 44.14Q186.12 46.84 186.12 52.38L186.12 52.38L186.12 52.38Q186.12 57.92 187.96 60.64L187.96 60.64L187.96 60.64Q189.79 63.36 193.75 63.36ZM229.54 45.07L229.54 60.91L229.54 60.91Q230.80 62.28 232.27 62.86L232.27 62.86L232.27 62.86Q233.75 63.43 235.26 63.43L235.26 63.43L235.26 63.43Q236.84 63.43 238.18 62.84L238.18 62.84L238.18 62.84Q239.51 62.24 240.46 60.89L240.46 60.89L240.46 60.89Q241.42 59.54 241.96 57.33L241.96 57.33L241.96 57.33Q242.50 55.12 242.50 51.88L242.50 51.88L242.50 51.88Q242.50 49.07 242.08 47.11L242.08 47.11L242.08 47.11Q241.67 45.14 240.86 43.90L240.86 43.90L240.86 43.90Q240.05 42.66 238.84 42.10L238.84 42.10L238.84 42.10Q237.64 41.54 236.09 41.54L236.09 41.54L236.09 41.54Q234.04 41.54 232.52 42.44L232.52 42.44L232.52 42.44Q231.01 43.34 229.54 45.07L229.54 45.07ZM229.54 17.17L229.54 37.69L229.54 37.69Q231.70 35.64 234.27 34.40L234.27 34.40L234.27 34.40Q236.84 33.16 240.01 33.16L240.01 33.16L240.01 33.16Q243.18 33.16 245.77 34.45L245.77 34.45L245.77 34.45Q248.36 35.75 250.20 38.14L250.20 38.14L250.20 38.14Q252.04 40.54 253.03 43.92L253.03 43.92L253.03 43.92Q254.02 47.30 254.02 51.48L254.02 51.48L254.02 51.48Q254.02 56.02 252.86 59.72L252.86 59.72L252.86 59.72Q251.71 63.43 249.61 66.08L249.61 66.08L249.61 66.08Q247.50 68.72 244.58 70.18L244.58 70.18L244.58 70.18Q241.67 71.64 238.14 71.64L238.14 71.64L238.14 71.64Q236.45 71.64 235.12 71.32L235.12 71.32L235.12 71.32Q233.78 70.99 232.67 70.40L232.67 70.40L232.67 70.40Q231.55 69.80 230.63 68.98L230.63 68.98L230.63 68.98Q229.72 68.15 228.85 67.18L228.85 67.18L228.46 69.05L228.46 69.05Q228.17 70.20 227.52 70.63L227.52 70.63L227.52 70.63Q226.87 71.06 225.79 71.06L225.79 71.06L218.38 71.06L218.38 17.17L229.54 17.17ZM259.99 33.73L271.15 33.73L271.15 71.06L259.99 71.06L259.99 33.73ZM272.30 23.51L272.30 23.51L272.30 23.51Q272.30 24.84 271.76 26.01L271.76 26.01L271.76 26.01Q271.22 27.18 270.29 28.06L270.29 28.06L270.29 28.06Q269.35 28.94 268.11 29.47L268.11 29.47L268.11 29.47Q266.87 29.99 265.46 29.99L265.46 29.99L265.46 29.99Q264.10 29.99 262.91 29.47L262.91 29.47L262.91 29.47Q261.72 28.94 260.80 28.06L260.80 28.06L260.80 28.06Q259.88 27.18 259.36 26.01L259.36 26.01L259.36 26.01Q258.84 24.84 258.84 23.51L258.84 23.51L258.84 23.51Q258.84 22.14 259.36 20.95L259.36 20.95L259.36 20.95Q259.88 19.76 260.80 18.86L260.80 18.86L260.80 18.86Q261.72 17.96 262.91 17.46L262.91 17.46L262.91 17.46Q264.10 16.96 265.46 16.96L265.46 16.96L265.46 16.96Q266.87 16.96 268.11 17.46L268.11 17.46L268.11 17.46Q269.35 17.96 270.29 18.86L270.29 18.86L270.29 18.86Q271.22 19.76 271.76 20.95L271.76 20.95L271.76 20.95Q272.30 22.14 272.30 23.51ZM278.96 17.17L290.12 17.17L290.12 71.06L278.96 71.06L278.96 17.17ZM307.01 47.92L320.90 47.92L320.90 47.92Q320.90 46.58 320.56 45.32L320.56 45.32L320.56 45.32Q320.22 44.06 319.45 43.07L319.45 43.07L319.45 43.07Q318.67 42.08 317.41 41.47L317.41 41.47L317.41 41.47Q316.15 40.86 314.35 40.86L314.35 40.86L314.35 40.86Q311.18 40.86 309.38 42.68L309.38 42.68L309.38 42.68Q307.58 44.50 307.01 47.92L307.01 47.92ZM328.39 54.40L306.86 54.40L306.86 54.40Q307.40 59.08 309.71 61.18L309.71 61.18L309.71 61.18Q312.01 63.29 315.65 63.29L315.65 63.29L315.65 63.29Q317.59 63.29 319.00 62.82L319.00 62.82L319.00 62.82Q320.40 62.35 321.50 61.78L321.50 61.78L321.50 61.78Q322.60 61.20 323.51 60.73L323.51 60.73L323.51 60.73Q324.43 60.26 325.44 60.26L325.44 60.26L325.44 60.26Q326.77 60.26 327.46 61.24L327.46 61.24L330.70 65.23L330.70 65.23Q328.97 67.21 326.97 68.45L326.97 68.45L326.97 68.45Q324.97 69.70 322.87 70.40L322.87 70.40L322.87 70.40Q320.76 71.10 318.65 71.37L318.65 71.37L318.65 71.37Q316.55 71.64 314.64 71.64L314.64 71.64L314.64 71.64Q310.72 71.64 307.28 70.36L307.28 70.36L307.28 70.36Q303.84 69.08 301.27 66.56L301.27 66.56L301.27 66.56Q298.69 64.04 297.20 60.30L297.20 60.30L297.20 60.30Q295.70 56.56 295.70 51.59L295.70 51.59L295.70 51.59Q295.70 47.84 296.98 44.50L296.98 44.50L296.98 44.50Q298.26 41.15 300.65 38.63L300.65 38.63L300.65 38.63Q303.05 36.11 306.45 34.63L306.45 34.63L306.45 34.63Q309.85 33.16 314.14 33.16L314.14 33.16L314.14 33.16Q317.84 33.16 320.92 34.31L320.92 34.31L320.92 34.31Q324.00 35.46 326.21 37.66L326.21 37.66L326.21 37.66Q328.43 39.85 329.67 43.04L329.67 43.04L329.67 43.04Q330.91 46.22 330.91 50.26L330.91 50.26L330.91 50.26Q330.91 51.52 330.80 52.31L330.80 52.31L330.80 52.31Q330.70 53.10 330.41 53.57L330.41 53.57L330.41 53.57Q330.12 54.04 329.63 54.22L329.63 54.22L329.63 54.22Q329.15 54.40 328.39 54.40L328.39 54.40ZM366.59 44.35L372.92 44.35L372.92 44.35Q377.68 44.35 379.76 42.08L379.76 42.08L379.76 42.08Q381.85 39.82 381.85 35.75L381.85 35.75L381.85 35.75Q381.85 33.95 381.31 32.47L381.31 32.47L381.31 32.47Q380.77 31.00 379.67 29.93L379.67 29.93L379.67 29.93Q378.58 28.87 376.90 28.30L376.90 28.30L376.90 28.30Q375.23 27.72 372.92 27.72L372.92 27.72L366.59 27.72L366.59 44.35ZM354.42 18.61L372.92 18.61L372.92 18.61Q378.47 18.61 382.45 19.93L382.45 19.93L382.45 19.93Q386.42 21.24 389.00 23.54L389.00 23.54L389.00 23.54Q391.57 25.85 392.80 28.98L392.80 28.98L392.80 28.98Q394.02 32.11 394.02 35.75L394.02 35.75L394.02 35.75Q394.02 39.67 392.76 42.95L392.76 42.95L392.76 42.95Q391.50 46.22 388.91 48.56L388.91 48.56L388.91 48.56Q386.32 50.90 382.34 52.22L382.34 52.22L382.34 52.22Q378.36 53.53 372.92 53.53L372.92 53.53L366.59 53.53L366.59 71.06L354.42 71.06L354.42 18.61ZM437.90 18.61L437.90 28.26L423.14 28.26L423.14 71.06L410.98 71.06L410.98 28.26L396.22 28.26L396.22 18.61L437.90 18.61Z"/></svg>