<!-- Generated by IcoMoon.io -->
<svg version="1.1" xmlns="http://www.w3.org/2000/svg" width="60" height="60" viewBox="0 0 60 60">
<title>credit</title>
<path d="M33 50.265v6.735h-6v-6.429c-5.136-0.3-9.198-1.767-12.723-5.391l5.154-5.22c2.577 2.61 6.069 3.48 9.846 3.48 4.695 0 7.215-1.797 7.215-5.106 0-1.449-0.399-2.667-1.26-3.48-0.801-0.753-1.716-1.161-3.606-1.449l-4.926-0.696c-3.492-0.522-6.066-1.623-7.902-3.423-1.944-1.971-2.919-4.638-2.919-8.121 0-6.465 4.146-11.229 11.121-12.3v-5.865h6v5.796c4.146 0.435 7.395 1.86 10.245 4.653l-5.037 5.046c-2.577-2.496-5.667-2.841-8.361-2.841-4.236 0-6.297 2.376-6.297 5.22 0 1.044 0.345 2.148 1.203 2.958 0.801 0.756 2.118 1.392 3.78 1.623l4.806 0.696c3.723 0.522 6.069 1.566 7.788 3.189 2.178 2.088 3.15 5.106 3.15 8.76 0 6.75-4.701 10.986-11.277 12.165z"></path>
</svg>
