<!-- Generated by IcoMoon.io -->
<svg version="1.1" xmlns="http://www.w3.org/2000/svg" width="60" height="60" viewBox="0 0 60 60">
<title>creative-commons-noncommercial-us</title>
<path d="M29.963 1.2c8.074 0 14.899 2.783 20.475 8.351 5.574 5.569 8.362 12.385 8.362 20.449s-2.74 14.809-8.218 20.232c-5.817 5.712-12.69 8.568-20.619 8.568-7.833 0-14.586-2.831-20.257-8.495s-8.506-12.433-8.506-20.305 2.834-14.688 8.506-20.449c5.527-5.568 12.28-8.351 20.257-8.351zM7.679 22.264c-0.86 2.43-1.289 5.009-1.289 7.736 0 6.384 2.331 11.904 6.993 16.559s10.212 6.985 16.653 6.985c6.441 0 12.039-2.351 16.798-7.056 1.593-1.54 2.904-3.219 3.934-5.039l-10.856-4.835c-0.737 3.653-3.992 6.121-7.928 6.411v4.439h-3.306v-4.439c-3.233-0.037-6.355-1.358-8.742-3.449l3.967-4c1.91 1.798 3.82 2.606 6.428 2.606 1.689 0 3.563-0.661 3.563-2.863 0-0.78-0.302-1.323-0.779-1.731l-6.165-2.745c-1.691-0.753-3.124-1.391-4.562-2.030l-14.709-6.55zM30.035 6.383c-6.536 0-12.062 2.304-16.58 6.913-1.23 1.24-2.299 2.537-3.208 3.889l11.009 4.902c0.995-3.053 3.897-4.905 7.421-5.113v-4.439h3.306v4.439c2.278 0.11 4.776 0.734 7.237 2.642l-3.783 3.889c-1.396-0.991-3.159-1.688-4.924-1.688-1.432 0-3.452 0.441-3.452 2.239 0 0.274 0.091 0.516 0.258 0.731l6.175 2.75c1.594 0.709 3.117 1.387 4.625 2.058l14.757 6.571c0.489-1.934 0.733-3.989 0.733-6.166 0-6.577-2.306-12.145-6.921-16.704-4.567-4.609-10.116-6.913-16.654-6.913z"></path>
</svg>
